<?xml version="1.0" encoding="UTF-8"?>
<svg id="Layer_2" xmlns="http://www.w3.org/2000/svg" viewBox="0 0 2677.78 478.2">
  <defs>
    <style>
      .cls-1 {
        fill: #00fd2e;
      }

      .cls-2 {
        fill: #fff;
      }

      .cls-3 {
        fill: #ff0098;
      }
    </style>
  </defs>
  <g>
    <path class="cls-1" d="M307.8,97.8l-44.4,76.8c-27-20.4-48.6-29.4-70.2-29.4-27.6,0-45,13.2-45,34.8,0,19.2,10.2,28.8,51,48,66,31.2,88.8,59.4,88.8,112.2,0,80.4-63.6,136.8-153,136.8-48,0-81.6-10.8-135-43.8l45.6-76.8c36,24.6,57,33,84.6,33,31.8,0,53.4-16.2,53.4-40.8,0-17.4-9-27-46.8-45.6-71.4-36-92.4-61.8-92.4-115.8,0-72.6,62.4-126,147-126,40.8,0,77.4,11.4,116.4,36.6Z"/>
    <path class="cls-1" d="M520.2,157.2l-39,312h-100.8l38.4-312h-85.2l10.8-88.2h271.8l-10.8,88.2h-85.2Z"/>
    <path class="cls-1" d="M1053.6,249v7.8c0,131.4-87.6,220.2-217.2,220.2s-218.4-81.6-218.4-202.2,93.6-213.6,226.2-213.6c121.2,0,204.6,74.4,209.4,187.8ZM949.2,260.4c-3.6-63-46.2-103.2-109.2-103.2-68.4,0-118.2,48-118.2,114s45,109.8,112.2,109.8,115.8-46.2,115.8-113.4c0-2.4,0-4.8-.6-7.2Z"/>
    <path class="cls-1" d="M1705.79,69l-172.2,400.2h-114l-27-159.6c-6-34.2-8.4-60-9-103.8-13.2,45-18,58.8-33,95.4l-68.4,168h-108.6l-71.4-400.2h102l25.2,150c8.4,48.6,10.8,70.2,14.4,131.4,9.6-35.4,13.2-45.6,16.8-55.2l15.6-38.4,75.6-187.8h96l29.4,172.2c4.8,24.6,7.8,58.8,11.4,109.2,9-30.6,13.2-43.8,19.8-59.4l12-30,75.6-192h109.8Z"/>
    <path class="cls-1" d="M1684.79,333h104.4v8.4c0,32.4,20.4,51.6,55.2,51.6s55.8-19.2,55.8-49.2c0-28.2-20.4-46.2-52.2-46.2-2.4,0-6.6,0-12.6.6l9.6-75.6c9,1.2,13.8,1.8,18,1.8,28.2,0,47.4-17.4,47.4-43.2,0-22.8-17.4-39-42-39-27,0-40.8,13.8-45.6,48.6h-103.8c6-42,23.4-79.8,49.2-100.8,25.2-20.4,56.4-30,99-30,88.8,0,142.8,43.8,142.8,116.4,0,40.8-14.4,64.8-52.2,85.2,33,18,46.2,42,46.2,82.8,0,79.2-64.8,133.8-159.6,133.8-101.4,0-158.4-51.6-159.6-145.2Z"/>
    <path class="cls-1" d="M2393.99,226.2c.6,3.6.6,7.2.6,10.8,0,64.2-18.6,127.8-50.4,172.8-33.6,46.8-75.6,68.4-133.8,68.4-100.2,0-162.6-70.2-162.6-183,0-138,78-235.2,189-235.2,92.4,0,153,64.2,157.2,166.2ZM2291.98,235.8c0-55.2-19.8-87.6-54-87.6-49.8,0-88.2,63-88.2,145.8,0,59.4,22.2,96.6,58.8,96.6,49.8,0,83.4-63,83.4-154.8Z"/>
    <path class="cls-1" d="M2617.78,69l-49.8,400.2h-100.8l38.4-312h-57l10.8-88.2h158.4Z"/>
  </g>
  <g>
    <path class="cls-3" d="M337.8,67.8l-44.4,76.8c-27-20.4-48.6-29.4-70.2-29.4-27.6,0-45,13.2-45,34.8,0,19.2,10.2,28.8,51,48,66,31.2,88.8,59.4,88.8,112.2,0,80.4-63.6,136.8-153,136.8-48,0-81.6-10.8-135-43.8l45.6-76.8c36,24.6,57,33,84.6,33,31.8,0,53.4-16.2,53.4-40.8,0-17.4-9-27-46.8-45.6-71.4-36-92.4-61.8-92.4-115.8,0-72.6,62.4-126,147-126,40.8,0,77.4,11.4,116.4,36.6Z"/>
    <path class="cls-3" d="M550.2,127.2l-39,312h-100.8l38.4-312h-85.2l10.8-88.2h271.8l-10.8,88.2h-85.2Z"/>
    <path class="cls-3" d="M1083.6,219v7.8c0,131.4-87.6,220.2-217.2,220.2s-218.4-81.6-218.4-202.2S741.59,31.2,874.2,31.2c121.2,0,204.6,74.4,209.4,187.8ZM979.2,230.4c-3.6-63-46.2-103.2-109.2-103.2-68.4,0-118.2,48-118.2,114s45,109.8,112.2,109.8,115.8-46.2,115.8-113.4c0-2.4,0-4.8-.6-7.2Z"/>
    <path class="cls-3" d="M1735.79,39l-172.2,400.2h-114l-27-159.6c-6-34.2-8.4-60-9-103.8-13.2,45-18,58.8-33,95.4l-68.4,168h-108.6l-71.4-400.2h102l25.2,150c8.4,48.6,10.8,70.2,14.4,131.4,9.6-35.4,13.2-45.6,16.8-55.2l15.6-38.4,75.6-187.8h96l29.4,172.2c4.8,24.6,7.8,58.8,11.4,109.2,9-30.6,13.2-43.8,19.8-59.4l12-30,75.6-192h109.8Z"/>
    <path class="cls-3" d="M1714.79,303h104.4v8.4c0,32.4,20.4,51.6,55.2,51.6s55.8-19.2,55.8-49.2c0-28.2-20.4-46.2-52.2-46.2-2.4,0-6.6,0-12.6.6l9.6-75.6c9,1.2,13.8,1.8,18,1.8,28.2,0,47.4-17.4,47.4-43.2,0-22.8-17.4-39-42-39-27,0-40.8,13.8-45.6,48.6h-103.8c6-42,23.4-79.8,49.2-100.8,25.2-20.4,56.4-30,99-30,88.8,0,142.8,43.8,142.8,116.4,0,40.8-14.4,64.8-52.2,85.2,33,18,46.2,42,46.2,82.8,0,79.2-64.8,133.8-159.6,133.8-101.4,0-158.4-51.6-159.6-145.2Z"/>
    <path class="cls-3" d="M2423.98,196.2c.6,3.6.6,7.2.6,10.8,0,64.2-18.6,127.8-50.4,172.8-33.6,46.8-75.6,68.4-133.8,68.4-100.2,0-162.6-70.2-162.6-183,0-138,78-235.2,189-235.2,92.4,0,153,64.2,157.2,166.2ZM2321.98,205.8c0-55.2-19.8-87.6-54-87.6-49.8,0-88.2,63-88.2,145.8,0,59.4,22.2,96.6,58.8,96.6,49.8,0,83.4-63,83.4-154.8Z"/>
    <path class="cls-3" d="M2647.78,39l-49.8,400.2h-100.8l38.4-312h-57l10.8-88.2h158.4Z"/>
  </g>
  <g>
    <path class="cls-2" d="M367.8,37.8l-44.4,76.8c-27-20.4-48.6-29.4-70.2-29.4-27.6,0-45,13.2-45,34.8,0,19.2,10.2,28.8,51,48,66,31.2,88.8,59.4,88.8,112.2,0,80.4-63.6,136.8-153,136.8-48,0-81.6-10.8-135-43.8l45.6-76.8c36,24.6,57,33,84.6,33,31.8,0,53.4-16.2,53.4-40.8,0-17.4-9-27-46.8-45.6-71.4-36-92.4-61.8-92.4-115.8C104.4,54.6,166.8,1.2,251.4,1.2c40.8,0,77.4,11.4,116.4,36.6Z"/>
    <path class="cls-2" d="M580.2,97.2l-39,312h-100.8l38.4-312h-85.2l10.8-88.2h271.8l-10.8,88.2h-85.2Z"/>
    <path class="cls-2" d="M1113.6,189v7.8c0,131.4-87.6,220.2-217.2,220.2s-218.4-81.6-218.4-202.2S771.59,1.2,904.2,1.2c121.2,0,204.6,74.4,209.4,187.8ZM1009.2,200.4c-3.6-63-46.2-103.2-109.2-103.2-68.4,0-118.2,48-118.2,114s45,109.8,112.2,109.8,115.8-46.2,115.8-113.4c0-2.4,0-4.8-.6-7.2Z"/>
    <path class="cls-2" d="M1765.79,9l-172.2,400.2h-114l-27-159.6c-6-34.2-8.4-60-9-103.8-13.2,45-18,58.8-33,95.4l-68.4,168h-108.6L1162.19,9h102l25.2,150c8.4,48.6,10.8,70.2,14.4,131.4,9.6-35.4,13.2-45.6,16.8-55.2l15.6-38.4,75.6-187.8h96l29.4,172.2c4.8,24.6,7.8,58.8,11.4,109.2,9-30.6,13.2-43.8,19.8-59.4l12-30,75.6-192h109.8Z"/>
    <path class="cls-2" d="M1744.79,273h104.4v8.4c0,32.4,20.4,51.6,55.2,51.6s55.8-19.2,55.8-49.2c0-28.2-20.4-46.2-52.2-46.2-2.4,0-6.6,0-12.6.6l9.6-75.6c9,1.2,13.8,1.8,18,1.8,28.2,0,47.4-17.4,47.4-43.2,0-22.8-17.4-39-42-39-27,0-40.8,13.8-45.6,48.6h-103.8c6-42,23.4-79.8,49.2-100.8,25.2-20.4,56.4-30,99-30,88.8,0,142.8,43.8,142.8,116.4,0,40.8-14.4,64.8-52.2,85.2,33,18,46.2,42,46.2,82.8,0,79.2-64.8,133.8-159.6,133.8-101.4,0-158.4-51.6-159.6-145.2Z"/>
    <path class="cls-2" d="M2453.98,166.2c.6,3.6.6,7.2.6,10.8,0,64.2-18.6,127.8-50.4,172.8-33.6,46.8-75.6,68.4-133.8,68.4-100.2,0-162.6-70.2-162.6-183,0-138,78-235.2,189-235.2,92.4,0,153,64.2,157.2,166.2ZM2351.98,175.8c0-55.2-19.8-87.6-54-87.6-49.8,0-88.2,63-88.2,145.8,0,59.4,22.2,96.6,58.8,96.6,49.8,0,83.4-63,83.4-154.8Z"/>
    <path class="cls-2" d="M2677.78,9l-49.8,400.2h-100.8l38.4-312h-57l10.8-88.2h158.4Z"/>
  </g>
</svg>